<?xml version="1.0" encoding="UTF-8"?>
<svg xmlns="http://www.w3.org/2000/svg" xmlns:xlink="http://www.w3.org/1999/xlink" width="30pt" height="30.000001pt" viewBox="0 0 30 30.000001" version="1.2">
<defs>
<clipPath id="clip1">
  <path d="M 23 14 L 28.058594 14 L 28.058594 15 L 23 15 Z M 23 14 "/>
</clipPath>
<clipPath id="clip2">
  <path d="M 14 22 L 16 22 L 16 27.582031 L 14 27.582031 Z M 14 22 "/>
</clipPath>
<clipPath id="clip3">
  <path d="M 1.933594 14 L 7 14 L 7 15 L 1.933594 15 Z M 1.933594 14 "/>
</clipPath>
<clipPath id="clip4">
  <path d="M 14 1.453125 L 16 1.453125 L 16 7 L 14 7 Z M 14 1.453125 "/>
</clipPath>
</defs>
<g id="surface1">
<path style=" stroke:none;fill-rule:nonzero;fill:rgb(6.269836%,5.879211%,5.099487%);fill-opacity:1;" d="M 14.996094 9.035156 L 14.996094 19.996094 C 11.96875 19.992188 9.519531 17.535156 9.527344 14.507812 C 9.53125 11.488281 11.976562 9.039062 14.996094 9.035156 Z M 14.820312 8.453125 C 11.542969 8.550781 8.9375 11.234375 8.9375 14.515625 C 8.910156 17.863281 11.605469 20.597656 14.953125 20.621094 C 18.300781 20.648438 21.035156 17.953125 21.0625 14.605469 C 21.0625 14.578125 21.0625 14.546875 21.0625 14.515625 C 21.0625 11.167969 18.347656 8.453125 14.996094 8.453125 C 14.941406 8.453125 14.878906 8.453125 14.820312 8.453125 "/>
<path style=" stroke:none;fill-rule:nonzero;fill:rgb(6.269836%,5.879211%,5.099487%);fill-opacity:1;" d="M 23.828125 5.277344 L 20.800781 8.304688 C 20.6875 8.417969 20.6875 8.601562 20.800781 8.714844 C 20.914062 8.828125 21.097656 8.828125 21.210938 8.714844 L 24.234375 5.691406 C 24.347656 5.570312 24.339844 5.386719 24.226562 5.277344 C 24.113281 5.171875 23.9375 5.171875 23.828125 5.277344 "/>
<g clip-path="url(#clip1)" clip-rule="nonzero">
<path style=" stroke:none;fill-rule:nonzero;fill:rgb(6.269836%,5.879211%,5.099487%);fill-opacity:1;" d="M 27.773438 14.226562 L 23.492188 14.226562 C 23.332031 14.226562 23.203125 14.359375 23.203125 14.519531 C 23.203125 14.675781 23.332031 14.804688 23.492188 14.804688 L 27.773438 14.804688 C 27.933594 14.804688 28.0625 14.675781 28.058594 14.515625 C 28.058594 14.355469 27.933594 14.226562 27.773438 14.226562 "/>
</g>
<path style=" stroke:none;fill-rule:nonzero;fill:rgb(6.269836%,5.879211%,5.099487%);fill-opacity:1;" d="M 24.234375 23.34375 L 21.210938 20.316406 C 21.097656 20.203125 20.914062 20.207031 20.800781 20.324219 C 20.691406 20.433594 20.6875 20.613281 20.800781 20.726562 L 23.828125 23.753906 C 23.941406 23.863281 24.125 23.859375 24.238281 23.742188 C 24.339844 23.628906 24.339844 23.453125 24.234375 23.34375 "/>
<g clip-path="url(#clip2)" clip-rule="nonzero">
<path style=" stroke:none;fill-rule:nonzero;fill:rgb(6.269836%,5.879211%,5.099487%);fill-opacity:1;" d="M 15.289062 27.289062 L 15.289062 23.011719 C 15.289062 22.851562 15.160156 22.722656 14.996094 22.722656 C 14.835938 22.722656 14.707031 22.851562 14.707031 23.011719 L 14.707031 27.289062 C 14.707031 27.449219 14.835938 27.582031 14.996094 27.582031 C 15.160156 27.582031 15.289062 27.449219 15.289062 27.289062 "/>
</g>
<path style=" stroke:none;fill-rule:nonzero;fill:rgb(6.269836%,5.879211%,5.099487%);fill-opacity:1;" d="M 6.171875 23.753906 L 9.199219 20.726562 C 9.308594 20.613281 9.304688 20.425781 9.183594 20.316406 C 9.074219 20.214844 8.898438 20.214844 8.789062 20.316406 L 5.761719 23.34375 C 5.652344 23.460938 5.65625 23.644531 5.773438 23.753906 C 5.886719 23.859375 6.058594 23.859375 6.171875 23.753906 "/>
<g clip-path="url(#clip3)" clip-rule="nonzero">
<path style=" stroke:none;fill-rule:nonzero;fill:rgb(6.269836%,5.879211%,5.099487%);fill-opacity:1;" d="M 2.222656 14.804688 L 6.503906 14.804688 C 6.664062 14.804688 6.792969 14.675781 6.792969 14.515625 C 6.789062 14.355469 6.664062 14.226562 6.503906 14.226562 L 2.222656 14.226562 C 2.0625 14.226562 1.933594 14.359375 1.933594 14.519531 C 1.9375 14.675781 2.066406 14.804688 2.222656 14.804688 "/>
</g>
<path style=" stroke:none;fill-rule:nonzero;fill:rgb(6.269836%,5.879211%,5.099487%);fill-opacity:1;" d="M 5.761719 5.691406 L 8.789062 8.714844 C 8.902344 8.824219 9.085938 8.820312 9.199219 8.703125 C 9.304688 8.589844 9.304688 8.414062 9.199219 8.304688 L 6.171875 5.277344 C 6.054688 5.167969 5.871094 5.175781 5.761719 5.289062 C 5.652344 5.402344 5.652344 5.574219 5.761719 5.691406 "/>
<g clip-path="url(#clip4)" clip-rule="nonzero">
<path style=" stroke:none;fill-rule:nonzero;fill:rgb(6.269836%,5.879211%,5.099487%);fill-opacity:1;" d="M 14.707031 1.742188 L 14.707031 6.019531 C 14.707031 6.179688 14.835938 6.3125 14.996094 6.3125 C 15.160156 6.3125 15.289062 6.179688 15.289062 6.019531 L 15.289062 1.742188 C 15.289062 1.582031 15.160156 1.453125 14.996094 1.453125 C 14.835938 1.453125 14.707031 1.582031 14.707031 1.742188 "/>
</g>
</g>
</svg>
